<svg xmlns="http://www.w3.org/2000/svg" xmlns:xlink="http://www.w3.org/1999/xlink" version="1.1" x="0px" y="0px" viewBox="0 0 100 125" enable-background="new 0 0 100 100" xml:space="preserve"><path d="M19.2,74.9l60,20c1.6,0.5,3.3-0.7,3.3-2.4v-85c0-1.7-1.7-2.9-3.3-2.4l-60,20c-1,0.3-1.7,1.3-1.7,2.4v45  C17.5,73.6,18.2,74.5,19.2,74.9z M22.5,51.3H45v26.9l-22.5-7.5V51.3z M47.5,79V51.3h30V89L47.5,79z M77.5,48.8h-30V21l30-10V48.8z   M45,21.8v26.9H22.5V29.3L45,21.8z"/><text x="0" y="115" fill="#000000" font-size="5px" font-weight="bold" font-family="'Helvetica Neue', Helvetica, Arial-Unicode, Arial, Sans-serif">Created by Arthur Shlain</text><text x="0" y="120" fill="#000000" font-size="5px" font-weight="bold" font-family="'Helvetica Neue', Helvetica, Arial-Unicode, Arial, Sans-serif">from the Noun Project</text></svg>