<svg xmlns:dc="http://purl.org/dc/elements/1.1/" xmlns:cc="http://creativecommons.org/ns#" xmlns:rdf="http://www.w3.org/1999/02/22-rdf-syntax-ns#" xmlns:svg="http://www.w3.org/2000/svg" xmlns="http://www.w3.org/2000/svg" xmlns:sodipodi="http://sodipodi.sourceforge.net/DTD/sodipodi-0.dtd" xmlns:inkscape="http://www.inkscape.org/namespaces/inkscape" version="1.1" x="0px" y="0px" viewBox="0 0 100 125"><g transform="translate(0,-952.36218)"><path style="text-indent:0;text-transform:none;direction:ltr;block-progression:tb;baseline-shift:baseline;color:#000000;enable-background:accumulate;" d="m 8,20 c -1.570753,2e-4 -2.999843,1.4293 -3,3 l 0,54 c 1.57e-4,1.5707 1.429247,2.9998 3,3 l 84,0 c 1.57075,-2e-4 2.99984,-1.4293 3,-3 L 95,23 C 95.008,21.5282 93.77634,20.1534 92.3125,20 92.20842,19.99 92.10407,19.99 92,20 z m 3,6 78,0 0,48 -78,0 0,-39 45,0 c 1.58494,0.022 3.03125,-1.4149 3.03125,-3 0,-1.5851 -1.44631,-3.0224 -3.03125,-3 l -45,0 z m 54,3 c -1.65686,0 -3,1.3432 -3,3 0,1.6569 1.34314,3 3,3 1.65685,0 3,-1.3431 3,-3 0,-1.6568 -1.34315,-3 -3,-3 z m 9,0 c -1.65686,0 -3,1.3432 -3,3 0,1.6569 1.34314,3 3,3 1.65685,0 3,-1.3431 3,-3 0,-1.6568 -1.34315,-3 -3,-3 z m 9,0 c -1.65686,0 -3,1.3432 -3,3 0,1.6569 1.34314,3 3,3 1.65685,0 3,-1.3431 3,-3 0,-1.6568 -1.34315,-3 -3,-3 z" transform="translate(0,952.36218)" fill="#000000" fill-opacity="1" stroke="none" marker="none" visibility="visible" display="inline" overflow="visible"/></g><text x="0" y="115" fill="#000000" font-size="5px" font-weight="bold" font-family="'Helvetica Neue', Helvetica, Arial-Unicode, Arial, Sans-serif">Created by creative outlet</text><text x="0" y="120" fill="#000000" font-size="5px" font-weight="bold" font-family="'Helvetica Neue', Helvetica, Arial-Unicode, Arial, Sans-serif">from the Noun Project</text></svg>