<svg xmlns="http://www.w3.org/2000/svg" xmlns:xlink="http://www.w3.org/1999/xlink" version="1.1" x="0px" y="0px" viewBox="0 0 100 125" enable-background="new 0 0 100 100" xml:space="preserve"><path d="M36.7,7.8c1,0.9,2.5,2.2,3.8,1.9c1.3-0.3,2-1.3,2.2-3.8c0.1-2.5-0.9-2.2-3.4-1.5c0,0-1,0.1-2.6,0.7  C35.1,5.7,35.7,6.9,36.7,7.8z"/><path d="M61.6,9.7c1.3,0.3,2.8-1,3.8-1.9c1-0.9,1.6-2,0-2.6c-1.6-0.6-2.6-0.7-2.6-0.7c-2.5-0.7-3.5-1-3.4,1.5  C59.6,8.4,60.3,9.4,61.6,9.7z"/><path d="M52.9,36c0.7-2.6,5-17.7,5.6-20.6c0.5-2.7-0.9-4-3.2-5.3C55.7,9.4,56,8.5,56,7.6C56,5,53.9,3,51.4,3c-2.5,0-4.6,2.1-4.6,4.6  c0,1,0.3,1.9,0.8,2.7c-0.9,0.3-3.3,1.4-3.3,4.3c0,3.5,4.8,19.4,5.4,21.5C50.3,38.1,52.2,38.6,52.9,36z"/><path d="M17.3,21.3c1.3,0.2,3.3,0.6,4.2-0.4c1-0.9,1.1-2.2-0.1-4.4c-1.2-2.2-1.9-1.4-3.6,0.5c0,0-0.8,0.7-1.9,2  C14.8,20.4,15.9,21.1,17.3,21.3z"/><path d="M27.8,17.7c-0.6,0.7-2.1,3-0.6,5.4c1.8,3,14.3,14,15.9,15.5c1.6,1.4,3.5,0.9,2.7-1.7c-0.8-2.6-5.1-17.7-6.1-20.5  c-0.9-2.5-2.8-2.9-5.5-2.8c0-0.9-0.2-1.7-0.7-2.5c-1.3-2.2-4.2-2.8-6.3-1.5c-2.2,1.3-2.8,4.2-1.5,6.3C26.2,16.7,27,17.3,27.8,17.7z"/><path d="M7,41.7c1.3-0.5,3.1-1.1,3.5-2.4c0.4-1.3-0.2-2.4-2.3-3.7c-2.1-1.3-2.3-0.3-2.9,2.3c0,0-0.4,1-0.6,2.7  C4.5,42.1,5.8,42.2,7,41.7z"/><path d="M11.7,32.7c0.9,0.5,1.8,0.6,2.7,0.5c-0.2,0.9-0.3,3.6,2.2,5c3.1,1.7,19.4,5,21.5,5.5c2.1,0.5,3.5-0.9,1.5-2.8  C37.6,39,26.4,28,24.1,26.1c-2.1-1.7-3.9-1.1-6.2,0.3c-0.4-0.8-1-1.4-1.9-1.9c-2.2-1.2-5-0.4-6.2,1.9C8.6,28.7,9.4,31.5,11.7,32.7z"/><path d="M9.6,60.2c-0.3-1.3-1.3-2.1-3.8-2.3c-2.5-0.2-2.2,0.8-1.5,3.3c0,0,0.1,1,0.7,2.6c0.6,1.6,1.7,1.1,2.6,0  C8.5,63,9.8,61.5,9.6,60.2z"/><path d="M8.6,54c1,0,1.9-0.3,2.7-0.8c0.3,0.9,1.4,3.4,4.2,3.4c3.5,0.1,19.5-4.5,21.6-5c2.1-0.5,2.7-2.4,0.1-3.2  c-2.6-0.8-17.6-5.3-20.5-5.9c-2.7-0.6-4,0.8-5.4,3.1c-0.7-0.5-1.6-0.8-2.5-0.8c-2.5,0-4.6,2-4.7,4.5C4,51.9,6,54,8.6,54z"/><path d="M15.5,79.7c-2.2,1.1-1.5,1.8,0.4,3.6c0,0,0.6,0.8,1.9,1.9c1.3,1.1,2,0,2.3-1.3c0.3-1.3,0.7-3.2-0.2-4.2  C19,78.8,17.7,78.6,15.5,79.7z"/><path d="M38.2,58.8c1.5-1.5,1.1-3.5-1.6-2.8C34,56.6,18.8,60.4,16,61.3c-2.6,0.9-3,2.7-3,5.4c-0.9-0.1-1.7,0.1-2.6,0.6  c-2.2,1.3-3,4.1-1.7,6.3c1.3,2.2,4.1,3,6.3,1.7c0.9-0.5,1.5-1.2,1.9-2c0.7,0.6,2.9,2.2,5.4,0.8C25.3,72.3,36.8,60.3,38.2,58.8z"/><path d="M41.8,92.4c-0.2-0.8-0.7-1.4-1.2-1.7c-0.2-0.1-0.3-0.3-0.5-0.3c-1-0.3-1.9-0.1-2.9,1c-0.4,0.3-0.7,0.5-1,0.8  c-1.1,0.8-1.7,2-0.1,2.6l0.2,0c0.5,0.3,1.2,0.5,2.2,0.7c0,0,1,0.4,2.6,0.7c1.7,0.3,1.8-1,1.3-2.3C42.2,93.5,42,92.9,41.8,92.4z"/><path d="M39.2,84.3c1.8-3,5.7-19.2,6.2-21.3c0.5-2.1-0.8-3.5-2.8-1.6c-2,1.9-13.2,12.8-15.2,15c-1.8,2-1.3,3.9,0.1,6.2  c-0.8,0.4-1.4,1-1.9,1.8c-1.3,2.2-0.5,5,1.6,6.3c2.2,1.3,5,0.6,6.3-1.6c0.5-0.9,0.7-1.8,0.6-2.7C35.1,86.5,37.8,86.8,39.2,84.3z"/><path d="M85.5,21.7c1.3-0.2,2.5-0.8,1.4-2.2c-1-1.4-1.8-2-1.8-2c-1.7-2-2.4-2.8-3.6-0.6c-1.2,2.2-1.2,3.4-0.2,4.4  C82.2,22.2,84.1,21.9,85.5,21.7z"/><path d="M63,16.3c-1.1,2.8-5.7,17.7-6.5,20.3c-0.8,2.6,1.1,3.1,2.7,1.7c1.6-1.4,14.3-12.2,16.2-15.1c1.6-2.4,0.1-4.7-0.5-5.4  c0.9-0.3,1.6-0.9,2.2-1.8c1.4-2.1,0.8-5-1.4-6.4c-2.1-1.4-5-0.8-6.4,1.4c-0.5,0.8-0.7,1.7-0.7,2.5C65.9,13.4,64,13.8,63,16.3z"/><path d="M91.9,38.9c0.4,1.3,2.2,1.9,3.5,2.4c1.3,0.5,2.6,0.4,2.3-1.3c-0.3-1.7-0.6-2.7-0.6-2.7c-0.6-2.5-0.8-3.6-2.9-2.2  C92.1,36.5,91.6,37.6,91.9,38.9z"/><path d="M64.4,43.5c2.1-0.5,18.4-3.9,21.5-5.6c2.5-1.4,2.3-4.1,2.2-5c0.9,0.1,1.9-0.1,2.7-0.5c2.2-1.2,3-4,1.8-6.3  c-1.2-2.2-4-3-6.3-1.8c-0.8,0.4-1.4,1.1-1.8,1.9c-2.3-1.4-4.1-2-6.2-0.3C76,27.8,64.8,38.8,62.9,40.7C60.9,42.6,62.4,44,64.4,43.5z"/><path d="M95.8,59.2c-2.5,0.1-3.5,0.7-3.9,2c-0.3,1.3,0.9,2.8,1.8,3.9c0.8,1.1,2,1.7,2.6,0.1c0.6-1.6,0.8-2.6,0.8-2.6  C98,60.2,98.3,59.2,95.8,59.2z"/><path d="M92.2,46.6c-1.2-2.4-2.5-3.9-5.2-3.4c-2.9,0.5-18.2,4.1-20.8,4.8c-2.7,0.6-2.1,2.6-0.1,3.2c2,0.7,17.8,6.1,21.3,6.2  c2.9,0.1,4.1-2.3,4.4-3.2c0.7,0.6,1.6,0.9,2.6,0.9c2.5,0.1,4.7-1.9,4.8-4.4c0.1-2.5-1.9-4.7-4.4-4.8C93.8,45.9,93,46.2,92.2,46.6z"/><path d="M84.8,80c-2.2-1.2-3.4-1.1-4.4-0.1c-0.9,1-0.6,2.9-0.4,4.2c0.2,1.3,0.9,2.4,2.2,1.4c1.3-1.1,2-1.9,2-1.9  C86.2,81.9,87,81.2,84.8,80z"/><path d="M90.4,67.8c-0.8-0.5-1.7-0.7-2.5-0.7c0.1-2.7-0.3-4.6-2.8-5.5c-2.8-1-17.8-5.4-20.5-6.2c-2.6-0.8-3.1,1.2-1.7,2.7  c1.4,1.6,12.4,14.1,15.4,15.9c2.4,1.5,4.7,0,5.4-0.6c0.4,0.8,1,1.6,1.8,2.1c2.2,1.3,5,0.7,6.3-1.5C93.2,72,92.5,69.2,90.4,67.8z"/><path d="M62,91.5c-1.3,0.4-2,2.2-2.5,3.4c-0.5,1.3-0.5,2.6,1.2,2.3c1.7-0.2,2.7-0.6,2.7-0.6c2.5-0.5,3.6-0.7,2.3-2.9  C64.4,91.7,63.3,91.1,62,91.5z"/><path d="M74.9,84.3c1.5-2.3,2.1-4.1,0.4-6.2c-1.9-2.3-12.6-13.7-14.5-15.7c-1.9-2-3.3-0.6-2.9,1.5c0.4,2.1,3.5,18.4,5.2,21.6  c1.3,2.5,4,2.4,4.9,2.3c-0.1,0.9,0,1.9,0.5,2.7c1.2,2.3,4,3.1,6.2,1.9c2.3-1.2,3.1-4,1.9-6.2C76.3,85.3,75.6,84.7,74.9,84.3z"/><path d="M53.6,64.7C53,62,51,62.5,50.4,64.6c-0.7,2-6.2,17.7-6.3,21.2c-0.1,2.9,2.3,4.1,3.1,4.4c-0.6,0.7-0.9,1.6-1,2.6  c-0.1,2.5,1.9,4.7,4.4,4.8c2.5,0.1,4.7-1.9,4.8-4.4c0-0.9-0.2-1.8-0.6-2.5c2.4-1.2,3.9-2.5,3.5-5.2C57.8,82.6,54.2,67.4,53.6,64.7z"/><circle cx="51.5" cy="50.2" r="7.5"/><text x="0" y="115" fill="#000000" font-size="5px" font-weight="bold" font-family="'Helvetica Neue', Helvetica, Arial-Unicode, Arial, Sans-serif">Created by Michael Wohlwend</text><text x="0" y="120" fill="#000000" font-size="5px" font-weight="bold" font-family="'Helvetica Neue', Helvetica, Arial-Unicode, Arial, Sans-serif">from the Noun Project</text></svg>