<svg xmlns="http://www.w3.org/2000/svg" xmlns:xlink="http://www.w3.org/1999/xlink" version="1.1" x="0px" y="0px" viewBox="0 0 100 125" enable-background="new 0 0 100 100" xml:space="preserve"><path d="M50,66c6.977,0,13.13-4.582,15.232-11.103C64.829,54.959,64.419,55,64,55c-2.954,0-5.617-1.551-7-3.396  C55.617,53.449,52.954,55,50,55s-5.617-1.551-7-3.396C41.617,53.449,38.954,55,36,55c-0.419,0-0.829-0.044-1.233-0.107  C36.867,61.417,43.022,66,50,66z"/><path d="M50,76c14.337,0,26-11.664,26-26S64.337,24,50,24S24,35.664,24,50S35.663,76,50,76z M72,47.5  c1.379,0,2.5,1.122,2.5,2.5s-1.121,2.5-2.5,2.5s-2.5-1.122-2.5-2.5S70.621,47.5,72,47.5z M50,74.5c-1.379,0-2.5-1.122-2.5-2.5  s1.121-2.5,2.5-2.5s2.5,1.122,2.5,2.5S51.379,74.5,50,74.5z M50,25.5c1.379,0,2.5,1.122,2.5,2.5s-1.121,2.5-2.5,2.5  s-2.5-1.122-2.5-2.5S48.621,25.5,50,25.5z M49.907,32c0.016,0,0.031,0.002,0.047,0.002S49.984,32,50,32  c9.852,0,17.826,7.959,17.942,17.784c0.001,0.073,0.012,0.143,0.012,0.216c0,1.244-0.078,2.482-0.324,3.681  C65.899,61.979,58.299,68,49.814,68S34,61.979,32,53.684c0-0.001,0-0.002,0-0.003c0-1.198-0.186-2.437-0.186-3.681  C31.814,40.075,39.982,32,49.907,32z M28,52.5c-1.379,0-2.5-1.122-2.5-2.5s1.121-2.5,2.5-2.5s2.5,1.122,2.5,2.5S29.379,52.5,28,52.5  z"/><circle cx="72" cy="50" r="1.5"/><circle cx="50" cy="28" r="1.5"/><circle cx="50" cy="72" r="1.5"/><circle cx="28" cy="50" r="1.5"/><text x="0" y="115" fill="#000000" font-size="5px" font-weight="bold" font-family="'Helvetica Neue', Helvetica, Arial-Unicode, Arial, Sans-serif">Created by Spicy Icons</text><text x="0" y="120" fill="#000000" font-size="5px" font-weight="bold" font-family="'Helvetica Neue', Helvetica, Arial-Unicode, Arial, Sans-serif">from the Noun Project</text></svg>